<svg width="26" height="26" viewBox="0 0 26 26" fill="none" xmlns="http://www.w3.org/2000/svg">
<g clip-path="url(#clip0_6_22)">
<path d="M5.07764 10.4563H25.3231V25.9961H5.07764V10.4563Z" fill="#F6F6F6"/>
<path d="M0.777344 14.0232V27.2068H26.168V0.8396H0.777344V14.0232ZM21.2381 12.9685C21.8463 13.1151 22.399 13.4454 22.8266 13.9177C23.062 14.1722 23.2666 14.4555 23.4359 14.7615C23.4359 14.7952 22.3391 15.5651 21.6708 15.9955C21.6464 16.0123 21.5489 15.9026 21.4412 15.736C21.3193 15.5174 21.1459 15.3345 20.9374 15.2043C20.7289 15.074 20.492 15.0008 20.2489 14.9914C19.4791 14.9366 18.9834 15.3563 18.9875 16.0461C18.9811 16.2178 19.019 16.3882 19.0972 16.5397C19.2658 16.9046 19.5806 17.1219 20.5678 17.5648C22.3858 18.3769 23.1637 18.9127 23.6472 19.6742C24.1875 20.518 24.3073 21.8806 23.9417 22.8889C23.5355 23.9858 22.5402 24.7304 21.1325 24.9772C20.4896 25.0536 19.84 25.0466 19.1987 24.9561C18.216 24.7879 17.3107 24.2978 16.615 23.5576C16.3814 23.2897 15.9264 22.5915 15.9548 22.5408C16.029 22.4837 16.1071 22.4322 16.1884 22.3869L17.1289 21.8469L17.8581 21.4081L18.0105 21.6423C18.2676 22.0242 18.5948 22.3496 18.9733 22.5999C19.7858 23.0429 20.8948 22.9817 21.4433 22.4691C21.6274 22.2813 21.7423 22.0324 21.7679 21.7656C21.7935 21.4989 21.7282 21.2313 21.5834 21.0094C21.3803 20.7162 20.9741 20.4694 19.8386 19.9548C18.5284 19.3683 17.9637 19.0055 17.4478 18.4276C17.1257 18.0462 16.8879 17.5962 16.7511 17.1092C16.649 16.5528 16.6339 15.983 16.7064 15.4217C16.9766 14.1076 17.9252 13.19 19.3105 12.9179C19.952 12.8354 20.6019 12.8539 21.2381 12.9727V12.9685ZM15.2784 14.0738V15.1538H11.9817V24.9055H9.64375V15.1517H6.33891V14.097C6.32861 13.7333 6.33675 13.3693 6.36328 13.0065C6.37953 12.9875 8.39453 12.9875 10.832 12.9875H15.2662L15.2784 14.0738Z" fill="#007ACC"/>
</g>
<defs>
<clipPath id="clip0_6_22">
<rect width="26" height="27" fill="white" transform="translate(0.472656 0.542236)"/>
</clipPath>
</defs>
</svg>
