<svg width="26" height="27" viewBox="0 0 26 27" fill="none" xmlns="http://www.w3.org/2000/svg">
<g clip-path="url(#clip0_148_2)">
<path d="M13 27C20.1797 27 26 20.9558 26 13.5C26 6.04416 20.1797 0 13 0C5.8203 0 0 6.04416 0 13.5C0 20.9558 5.8203 27 13 27Z" fill="black"/>
<path d="M21.5954 23.6281L9.98685 8.1001H7.7998V18.8957H9.54952V10.4075L20.2217 24.7268C20.7027 24.3927 21.1616 24.0256 21.5954 23.6281Z" fill="url(#paint0_linear_148_2)"/>
<path d="M16.6113 8.1001H18.3446V18.9001H16.6113V8.1001Z" fill="url(#paint1_linear_148_2)"/>
</g>
<defs>
<linearGradient id="paint0_linear_148_2" x1="15.7442" y1="17.4751" x2="21.1082" y2="23.8772" gradientUnits="userSpaceOnUse">
<stop stop-color="white"/>
<stop offset="1" stop-color="white" stop-opacity="0"/>
</linearGradient>
<linearGradient id="paint1_linear_148_2" x1="17.4779" y1="8.10009" x2="17.4466" y2="16.0313" gradientUnits="userSpaceOnUse">
<stop stop-color="white"/>
<stop offset="1" stop-color="white" stop-opacity="0"/>
</linearGradient>
<clipPath id="clip0_148_2">
<rect width="26" height="27" fill="white"/>
</clipPath>
</defs>
</svg>
