<svg width="27" height="28" viewBox="0 0 27 28" fill="none" xmlns="http://www.w3.org/2000/svg">
<g clip-path="url(#clip0_7_55)">
<rect width="26" height="27" transform="translate(0.748047 0.541016)" fill="#41B883"/>
<path d="M13.5977 24.3769C13.5124 24.3769 13.4271 24.3453 13.3499 24.2925L12.5699 23.6914C12.4521 23.607 12.509 23.5754 12.5496 23.5595C12.704 23.491 12.7365 23.4752 12.903 23.3486C12.9193 23.3381 12.9437 23.3433 12.9599 23.3539L13.5612 23.8179C13.5815 23.8338 13.614 23.8338 13.6343 23.8179L15.9824 22.0566C16.0027 22.0408 16.019 22.0091 16.019 21.9722V18.4549C16.019 18.4179 16.0068 18.3863 15.9824 18.3705L13.6343 16.6144C13.614 16.5986 13.5855 16.5986 13.5612 16.6144L11.213 18.3705C11.1887 18.3863 11.1765 18.4232 11.1765 18.4549V21.9722C11.1765 22.0039 11.1927 22.0355 11.213 22.0513L11.8549 22.5312C12.2043 22.758 12.4196 22.489 12.4196 22.2254V18.7502C12.4196 18.7027 12.448 18.6605 12.4887 18.6605H12.7852C12.8218 18.6605 12.8543 18.6974 12.8543 18.7502V22.2254C12.8543 22.8318 12.6024 23.1746 12.1596 23.1746C12.0255 23.1746 11.9159 23.1746 11.6193 22.9847L11.0018 22.5259C10.8515 22.4099 10.754 22.199 10.754 21.9722V18.4549C10.754 18.2281 10.8474 18.0119 11.0018 17.9011L13.3499 16.1398C13.5002 16.0291 13.6952 16.0291 13.8415 16.1398L16.1896 17.9011C16.3399 18.0172 16.4374 18.2281 16.4374 18.4549V21.9722C16.4374 22.199 16.344 22.4152 16.1896 22.5259L13.8415 24.2873C13.7724 24.3453 13.6871 24.3769 13.5977 24.3769ZM15.4949 20.907C15.4949 20.2478 15.1537 20.0738 14.4305 19.9472C13.6993 19.8207 13.6262 19.7574 13.6262 19.5359C13.6262 19.3513 13.6871 19.1088 14.2274 19.1088C14.7109 19.1088 14.8896 19.2459 14.9627 19.6677C14.9709 19.7099 14.9952 19.7363 15.0277 19.7363H15.3324C15.3527 19.7363 15.369 19.7257 15.3812 19.7099C15.3934 19.6888 15.4015 19.6677 15.3974 19.6414C15.3487 18.9136 14.979 18.5761 14.2274 18.5761C13.5571 18.5761 13.159 18.9453 13.159 19.557C13.159 20.2267 13.5571 20.406 14.199 20.4904C14.9668 20.5906 15.0277 20.733 15.0277 20.9281C15.0277 21.2709 14.8165 21.4132 14.3209 21.4132C13.6993 21.4132 13.5612 21.2129 13.5165 20.8121C13.5124 20.7699 13.484 20.7382 13.4474 20.7382H13.1427C13.1062 20.7382 13.0737 20.7752 13.0737 20.8279C13.0737 21.3394 13.289 21.9511 14.3168 21.9511C15.0684 21.9511 15.4949 21.5715 15.4949 20.907ZM17.709 18.265C17.709 18.5867 17.5059 18.8504 17.258 18.8504C17.0102 18.8504 16.8071 18.5867 16.8071 18.265C16.8071 17.9328 17.0184 17.6797 17.258 17.6797C17.5018 17.6744 17.709 17.9328 17.709 18.265ZM17.6359 18.265C17.6359 17.9908 17.4652 17.7746 17.254 17.7746C17.0468 17.7746 16.8762 17.9908 16.8762 18.265C16.8762 18.5392 17.0468 18.7607 17.254 18.7607C17.4652 18.7554 17.6359 18.534 17.6359 18.265ZM17.453 18.592H17.3474C17.3434 18.5603 17.3271 18.3916 17.3271 18.3863C17.319 18.3494 17.3109 18.3283 17.2743 18.3283H17.1849V18.592H17.0874V17.9328H17.2621C17.323 17.9328 17.4409 17.9328 17.4409 18.1068C17.4409 18.2281 17.3799 18.2545 17.3434 18.2703C17.4124 18.2756 17.4165 18.3336 17.4287 18.4179C17.4327 18.4707 17.4409 18.5603 17.453 18.592ZM17.3393 18.1279C17.3393 18.0382 17.2905 18.0382 17.2662 18.0382H17.1849V18.2228H17.2621C17.3271 18.2228 17.3393 18.1648 17.3393 18.1279ZM6.32586 10.6132C6.32586 10.4709 6.26898 10.3443 6.17555 10.2757L3.68523 8.41422C3.64461 8.38258 3.59586 8.36676 3.54711 8.36149H3.52273C3.47398 8.36149 3.4293 8.38258 3.38461 8.41422L0.898359 10.2757C0.804922 10.3443 0.748047 10.4761 0.748047 10.6132L0.752109 15.623C0.752109 15.6916 0.780547 15.7548 0.825234 15.7918C0.869922 15.8287 0.926797 15.8287 0.975547 15.7918L2.4543 14.6896C2.54773 14.6158 2.60461 14.4892 2.60461 14.3521V12.0107C2.60461 11.8736 2.66148 11.7418 2.75492 11.6732L3.38461 11.2039C3.43336 11.167 3.48211 11.1511 3.53492 11.1511C3.58773 11.1511 3.64055 11.167 3.68523 11.2039L4.31492 11.6732C4.40836 11.7418 4.46523 11.8736 4.46523 12.0107V14.3521C4.46523 14.4892 4.52211 14.6211 4.61555 14.6896L6.0943 15.7918C6.13898 15.8287 6.19992 15.8287 6.24461 15.7918C6.2893 15.7601 6.31773 15.6916 6.31773 15.623L6.32586 10.6132ZM19.9434 5.14469V14.447C19.9434 14.5841 19.8865 14.716 19.793 14.7845L17.3027 16.6513C17.2093 16.7199 17.0955 16.7199 17.0021 16.6513L14.5118 14.7845C14.4184 14.716 14.3615 14.5841 14.3615 14.447V10.7134C14.3615 10.5763 14.4184 10.4445 14.5118 10.3759L17.0021 8.50915C17.0955 8.44059 17.2093 8.44059 17.3027 8.50915L17.9243 8.97321C17.9934 9.02594 18.0827 8.95739 18.0827 8.85719V3.90016C18.0827 3.75251 18.2046 3.65758 18.3062 3.73141L19.789 4.80719C19.8824 4.87047 19.9434 5.00231 19.9434 5.14469ZM18.0746 11.9422C18.0746 11.9052 18.0584 11.8736 18.038 11.8578L17.1849 11.2144C17.1605 11.1986 17.1321 11.1986 17.1077 11.2144L16.2546 11.8578C16.2302 11.8736 16.218 11.9052 16.218 11.9422V13.2236C16.218 13.2605 16.2343 13.2922 16.2546 13.308L17.1077 13.9461C17.1321 13.9619 17.1605 13.9619 17.1809 13.9461L18.034 13.308C18.0584 13.2922 18.0705 13.2605 18.0705 13.2236V11.9422H18.0746ZM26.5977 11.9052C26.6912 11.8367 26.748 11.7048 26.748 11.5677V10.666C26.748 10.5289 26.6912 10.397 26.5977 10.3285L24.1237 8.46169C24.0302 8.39313 23.9165 8.39313 23.823 8.46169L21.3327 10.3285C21.2393 10.397 21.1824 10.5289 21.1824 10.666V14.3996C21.1824 14.542 21.2393 14.6685 21.3327 14.7371L23.8068 16.567C23.8962 16.6355 24.0099 16.6355 24.1034 16.567L25.5984 15.4859C25.6999 15.4121 25.6999 15.2222 25.5984 15.1484L23.0918 13.2816C23.043 13.2447 23.0146 13.1814 23.0146 13.1129V11.9422C23.0146 11.8736 23.043 11.8103 23.0918 11.7734L23.8718 11.1881C23.9165 11.1511 23.9774 11.1511 24.0221 11.1881L24.8021 11.7734C24.8468 11.8103 24.8793 11.8736 24.8793 11.9422V12.8597C24.8793 13.0074 25.0052 13.1023 25.1068 13.0285L26.5977 11.9052ZM23.4574 12.0898C23.4412 12.1056 23.429 12.1267 23.429 12.1531V12.8703C23.429 12.8966 23.4412 12.923 23.4574 12.9336L23.9368 13.2922C23.953 13.308 23.9774 13.308 23.9937 13.2922L24.473 12.9336C24.4893 12.9177 24.5015 12.8966 24.5015 12.8703V12.1531C24.5015 12.1267 24.4893 12.1004 24.473 12.0898L23.9937 11.7312C23.9774 11.7154 23.953 11.7154 23.9368 11.7312L23.4574 12.0898ZM13.1305 14.3838V10.6713C13.1305 10.5341 13.0655 10.4023 12.9721 10.3338L10.4899 8.47751C10.4046 8.41422 10.2868 8.40368 10.1893 8.47751L7.70711 10.3338C7.61367 10.4023 7.54867 10.5289 7.54867 10.6713V14.3838C7.54867 14.5314 7.62586 14.658 7.71117 14.7213L10.1974 16.5775C10.2949 16.6513 10.4087 16.6461 10.498 16.5775L12.9762 14.7213C13.0493 14.6685 13.1021 14.5789 13.1224 14.4734C13.1265 14.447 13.1305 14.4154 13.1305 14.3838ZM10.1121 7.79723L10.0796 7.8236H10.1243L10.1121 7.79723ZM13.2077 14.6632L13.1915 14.6263V14.6738L13.2077 14.6632Z" fill="#F8F8F8"/>
</g>
<defs>
<clipPath id="clip0_7_55">
<rect width="26" height="27" fill="white" transform="translate(0.748047 0.541016)"/>
</clipPath>
</defs>
</svg>
