<svg width="27" height="28" viewBox="0 0 27 28" fill="none" xmlns="http://www.w3.org/2000/svg">
<g clip-path="url(#clip0_7_34)">
<path d="M26.2206 5.83472L23.8602 25.3076L13.25 27.4738L2.66901 25.3106L0.311035 5.83472L26.2206 5.83472Z" fill="#E44D26"/>
<path d="M13.2656 25.8181L21.8392 24.0678L23.8563 7.42725H13.2656V25.8181Z" fill="#F16529"/>
<path d="M8.67716 12.2046H13.2658V9.81592H5.13232L5.20992 10.4567L6.00718 17.0392H13.2658V14.6506H8.97362L8.67716 12.2046ZM9.40821 18.2336H6.15211L6.6065 21.9841L13.2508 23.3423L13.2658 23.3393V20.8541L13.2515 20.8569L9.63916 20.1386L9.40821 18.2336Z" fill="#EBEBEB"/>
<path d="M2.72119 0.541992H4.36955V1.74129H5.87745V0.541992H7.52591V4.17375H5.87755V2.95763H4.36965V4.17375H2.72129L2.72119 0.541992ZM9.69346 1.74637H8.24253V0.541992L12.794 0.541992V1.74637H11.3421V4.17375H9.69376V1.74637H9.69346ZM13.5163 0.541992L15.235 0.541992L16.2923 1.8181L17.3485 0.541992L19.068 0.541992V4.17375H17.4263V2.37365L16.2923 3.66494H16.2638L15.1291 2.37365V4.17375H13.5163V0.541992ZM19.8883 0.541992H21.5372V2.97334H23.8552V4.17375H19.8882L19.8883 0.541992Z" fill="black"/>
<path d="M13.2545 17.0392H17.2486L16.8721 20.1371L13.2544 20.8562V23.3412L19.904 21.9841L19.9527 21.5805L20.7151 15.292L20.7942 14.6506H13.2545V17.0392ZM13.2545 12.1987V12.2046H21.0893L21.1543 11.6677L21.3022 10.4567L21.3797 9.81592H13.2545V12.1987Z" fill="#F6F6F6"/>
</g>
<defs>
<clipPath id="clip0_7_34">
<rect width="26" height="27" fill="white" transform="translate(0.265625 0.541992)"/>
</clipPath>
</defs>
</svg>
