<svg width="27" height="28" viewBox="0 0 27 28" fill="none" xmlns="http://www.w3.org/2000/svg">
<g clip-path="url(#clip0_7_31)">
<path d="M0.369141 0.541992H26.3691V27.542H0.369141V0.541992Z" fill="#F7DF1E"/>
<path d="M7.20567 23.1051L9.19528 21.8547C9.57918 22.5614 9.92836 23.1594 10.7659 23.1594C11.5688 23.1594 12.0751 22.8333 12.0751 21.5647V12.9376H14.5184V21.6006C14.5184 24.2286 13.0349 25.4248 10.8707 25.4248C8.91608 25.4248 7.78153 24.3736 7.20557 23.1049M15.8455 22.8332L17.8349 21.6371C18.3587 22.5252 19.0393 23.1777 20.2434 23.1777C21.2559 23.1777 21.9015 22.652 21.9015 21.927C21.9015 21.0571 21.2383 20.7489 20.1213 20.2416L19.5106 19.9695C17.7478 19.1904 16.5785 18.2117 16.5785 16.1455C16.5785 14.2425 17.9746 12.7925 20.1563 12.7925C21.7096 12.7925 22.8266 13.3544 23.6293 14.8224L21.7269 16.0912C21.3079 15.3119 20.8543 15.0038 20.1562 15.0038C19.4406 15.0038 18.9868 15.4751 18.9868 16.0912C18.9868 16.8524 19.4406 17.1607 20.4877 17.6319L21.0985 17.9037C23.1755 18.8281 24.3447 19.7705 24.3447 21.8908C24.3447 24.1747 22.617 25.4251 20.2958 25.4251C18.0269 25.4251 16.5609 24.3014 15.8454 22.8333" fill="black"/>
</g>
<defs>
<clipPath id="clip0_7_31">
<rect width="26" height="27" fill="white" transform="translate(0.369141 0.541992)"/>
</clipPath>
</defs>
</svg>
