<svg width="27" height="28" viewBox="0 0 27 28" fill="none" xmlns="http://www.w3.org/2000/svg">
<g clip-path="url(#clip0_7_57)">
<path d="M8.37902 18.3577L9.16918 22.2636C9.34671 23.1504 9.42075 23.7695 9.39109 24.1223C9.82324 22.359 10.1252 20.4375 10.297 18.3577H11.2471C10.8386 21.7436 10.2997 24.2041 9.63088 25.739C9.10977 26.9218 8.53888 27.5132 7.91722 27.5132C7.75147 27.5132 7.54712 27.4369 7.30464 27.2854V26.4692C7.42312 26.4957 7.56211 26.5099 7.72196 26.5099C8.01198 26.5099 8.24572 26.3874 8.42356 26.143C8.63648 25.8452 8.74307 25.5105 8.74307 25.1396C8.74307 24.8863 8.65994 24.3665 8.49445 23.5802L7.39351 18.3577H8.37902ZM2.33164 15.957L3.7789 22.6843H3.78784L5.24399 15.957H6.4337C6.6942 19.2933 6.84807 22.3458 6.8953 25.1127H5.89227C5.85697 22.5262 5.75922 20.0941 5.59936 17.8158H5.59063L4.06323 25.1127H3.29938L1.78122 17.8158H1.77228C1.65965 20.0038 1.58876 22.4359 1.5592 25.1127H0.644531C0.703641 21.8573 0.851566 18.8056 1.08831 15.957H2.33164Z" fill="#00758F"/>
<path d="M18.5446 15.8211C20.1014 15.8211 20.8798 17.3364 20.8798 20.3654C20.8798 22.0114 20.6457 23.2547 20.178 24.0946C20.0937 24.2481 20.0005 24.3807 19.9024 24.5036L21.0041 25.3335L21.003 25.3334L20.6119 26.3625L19.1771 25.0872C18.9393 25.1945 18.6777 25.2481 18.3925 25.2481C17.6281 25.2481 17.0571 24.9087 16.6796 24.2307C16.2652 23.4808 16.0582 22.3001 16.0582 20.6908C16.0582 19.0541 16.2919 17.8155 16.7598 16.9745C17.1859 16.2052 17.781 15.8211 18.5446 15.8211ZM13.7773 15.8344C14.3337 15.8344 14.8396 16.0612 15.2953 16.5132L15.0639 17.299C14.6739 17.0465 14.2894 16.9197 13.9103 16.9197C13.6027 16.9197 13.3656 17.0325 13.2004 17.2595C13.0342 17.4844 12.9315 17.7739 12.9315 18.1269C12.9315 18.6692 13.1851 19.1395 13.6533 19.5368C13.8067 19.6646 13.9596 19.7938 14.1119 19.9245L14.1469 19.9544L14.1644 19.9695L14.1994 19.9994L14.2168 20.0144L14.2518 20.0444C14.6062 20.3488 14.9398 20.6394 14.9398 20.6394C15.408 21.1458 15.6413 21.6856 15.6413 22.5748C15.6413 23.3513 15.4546 23.9887 15.0822 24.4874C14.7097 24.9839 14.2091 25.2329 13.5823 25.2329C12.996 25.2329 12.4278 24.9463 11.8774 24.378L12.1349 23.5916C12.6085 23.9532 13.0371 24.1339 13.422 24.1339C13.783 24.1339 14.0655 24.0111 14.2699 23.7686C14.4739 23.5244 14.5961 23.1838 14.5961 22.7518C14.5961 22.2082 14.3479 21.7435 13.8925 21.3536C13.75 21.2337 13.6079 21.1126 13.4662 20.9903L13.4313 20.9602C13.3673 20.905 13.3027 20.8492 13.2395 20.7945L13.2052 20.7648C12.8977 20.4983 12.6319 20.2655 12.6319 20.2655C12.1767 19.7582 11.9484 19.214 11.9484 18.3172C11.9484 17.5755 12.1187 16.976 12.4586 16.52C12.7993 16.0629 13.2389 15.8344 13.7773 15.8344ZM22.7094 15.9569V23.9863H24.6004V25.1126H21.7504V15.957L22.7094 15.9569ZM25.6512 23.9898V24.1801H25.4433V25.1116H25.2844V24.1801H25.0684V23.9898H25.6512ZM26.0351 23.9898L26.2347 24.7545L26.4181 23.9898H26.6434V25.1116H26.4936V24.2579L26.2849 25.1116H26.1769L25.9678 24.2579H25.9598V25.1116H25.8181V23.9898H26.0351ZM18.4467 16.9471C17.5293 16.9471 17.0703 18.1006 17.0703 20.406C17.0703 21.7266 17.192 22.6842 17.4347 23.2811C17.6596 23.8335 18.0118 24.1091 18.4913 24.1091C19.4087 24.1091 19.8676 22.9466 19.8676 20.6228C19.8676 19.3207 19.746 18.3713 19.5035 17.7741C19.2784 17.223 18.9264 16.9471 18.4468 16.9471" fill="#F29111"/>
<path d="M16.0423 1.10833C16.3466 -0.0309303 17.4107 0.831832 17.8237 1.22979C17.9249 1.32936 18.041 1.53971 18.157 1.61746C18.3381 1.62829 18.5189 1.64988 18.7003 1.6614C19.0404 1.78318 19.359 1.88267 19.627 2.11522C20.8726 3.23274 21.6834 4.37154 22.4297 6.25257C22.5891 6.65099 22.6688 7.08214 22.799 7.51329C22.9798 8.15595 23.183 8.83056 23.3928 9.43826C23.4867 9.72636 23.5594 10.0467 23.6898 10.29C23.7408 10.4013 23.8855 10.4341 23.9719 10.5005C24.211 10.6891 24.5007 10.8322 24.7255 11.0535C25.1454 11.4523 25.5514 11.9277 25.9205 12.4143C26.0581 12.6021 26.1518 12.868 26.2829 13.0667V13.167C26.1666 13.2213 26.0506 13.2771 25.9346 13.3217C25.6811 13.4209 25.4566 13.3984 25.2107 13.4977C25.0588 13.5648 24.8702 13.6534 24.7108 13.6759L24.7255 13.6985C24.8193 14.1066 25.3265 14.4385 25.5584 14.6826C25.8402 14.9924 26.1012 15.368 26.3114 15.7995C26.3839 15.9096 26.4565 16.0098 26.5287 16.1196C26.5792 16.2308 26.5934 16.3747 26.6445 16.4739V16.5075C26.5879 16.4771 26.5473 16.419 26.5087 16.3584L26.4857 16.3218C26.4627 16.2854 26.4395 16.2497 26.413 16.2202C26.2532 16.0539 26.0944 15.8549 25.9346 15.7002C25.6598 15.4346 25.341 15.2804 25.0588 15.0137C24.8993 14.8589 24.7472 14.6826 24.5951 14.5054C24.4572 14.3502 24.3054 14.052 24.2187 13.8307C24.1677 13.7085 24.1607 13.5648 24.1024 13.4764C24.1128 13.3287 24.2016 13.2849 24.2913 13.2488L24.3119 13.2405C24.3428 13.2283 24.3731 13.2161 24.3995 13.1999C24.776 12.9564 25.2248 12.868 25.8044 12.8902C25.7826 12.6684 25.4204 12.3922 25.3048 12.2594C25.0727 12.0046 24.827 11.7387 24.5808 11.5067C24.4503 11.3853 24.2255 11.2966 24.081 11.1974C23.8855 11.0756 23.4508 10.9539 23.3425 10.722C23.1584 10.3563 23.0261 9.92023 22.8978 9.47972L22.8628 9.3595C22.8512 9.31943 22.8395 9.27938 22.8278 9.23935C22.6761 8.70887 22.4876 8.15579 22.3355 7.61262C22.2559 7.34765 22.2194 7.1151 22.1323 6.86095C21.6039 5.30145 20.8217 3.99578 19.8733 3.07755C19.5617 2.77877 19.2142 2.50227 18.8306 2.31436C18.6132 2.21432 18.3523 2.26964 18.1207 2.19289H17.9682C17.8381 2.13704 17.7295 1.92692 17.628 1.81613C17.4038 1.5842 17.1792 1.42846 16.9111 1.26298C16.8172 1.1966 16.5489 1.04203 16.4552 1.16372C16.3973 1.18593 16.3679 1.21927 16.3536 1.30793C16.2959 1.44022 16.3466 1.63951 16.3825 1.76151C16.4913 2.11507 16.6432 2.32519 16.7812 2.62397C16.9038 2.88894 17.0562 3.18772 17.1432 3.47582C17.3309 4.09512 17.4183 4.78126 17.5922 5.40048C17.6567 5.63334 17.7588 5.89832 17.8526 6.10836C17.9322 6.27508 18.0769 6.39561 18.1207 6.60666C18.2079 6.82792 17.9901 7.558 17.9396 7.78986C17.751 8.69711 17.7875 9.95822 18.0048 10.7446L18.0164 10.7861L18.0279 10.8281C18.1073 11.1161 18.1922 11.4263 18.4031 11.5068C18.4176 11.4848 18.4031 11.4964 18.4319 11.4848C18.4829 10.8761 18.4973 10.29 18.635 9.8137C18.7146 9.51593 18.8734 9.30542 18.9824 9.06234C19.055 9.12857 19.055 9.32824 19.0983 9.46038C19.1925 9.8031 19.2937 10.1789 19.4099 10.5226C19.6484 11.2305 19.9167 11.9168 20.2207 12.536C20.3225 12.7572 20.467 13.0006 20.5973 13.1998C20.6554 13.277 20.7204 13.3215 20.764 13.4208H20.7782V13.4542C20.561 13.3322 20.4232 12.9898 20.25 12.7899C19.9238 12.4141 19.5331 11.8498 19.3082 11.3084C19.2142 10.9975 19.1125 10.6996 19.0112 10.3903V10.3679C18.9679 10.4563 18.9824 10.544 18.9607 10.6777C18.8666 11.2305 18.9391 11.8611 18.6132 12.0599C18.2438 12.2928 17.9683 11.6841 17.8526 11.4076C17.4832 10.4896 17.382 8.94088 17.6425 7.69076C17.7004 7.41403 17.7083 7.08214 17.8093 6.86119C17.7875 6.66143 17.6864 6.60681 17.628 6.48442C17.5266 6.27523 17.4398 6.03154 17.3605 5.79921C17.208 5.3454 17.0996 4.80315 16.9838 4.31646C16.9329 4.11771 16.9184 3.91819 16.8676 3.73004C16.7811 3.44286 16.6216 3.15476 16.4986 2.9007C16.332 2.53554 15.8467 1.82781 16.0423 1.10833ZM18.4174 3.27568C18.4368 3.30523 18.4601 3.33107 18.4843 3.35653L18.5135 3.38701C18.5523 3.42801 18.5899 3.47118 18.613 3.52997C18.6496 3.6078 18.6564 3.68463 18.7001 3.76261C18.7001 4.02851 18.6496 4.20528 18.5474 4.31545C18.5474 4.31545 18.5405 4.32705 18.5333 4.33789C18.4754 4.16065 18.4247 3.98433 18.3664 3.80725C18.2946 3.65267 18.1931 3.53005 18.1346 3.35343H18.1205V3.33123C18.2079 3.29835 18.2946 3.27568 18.4174 3.27568Z" fill="#00758F"/>
</g>
<defs>
<clipPath id="clip0_7_57">
<rect width="26" height="27" fill="white" transform="translate(0.644531 0.541016)"/>
</clipPath>
</defs>
</svg>
