<svg width="27" height="28" viewBox="0 0 27 28" fill="none" xmlns="http://www.w3.org/2000/svg">
<g clip-path="url(#clip0_7_40)">
<path d="M13.1465 27.4735L2.5655 25.3104L0.20752 5.83447L26.1171 5.83447L23.7567 25.3074L13.1465 27.4735Z" fill="#264DE4"/>
<path d="M21.7357 24.0675L23.7527 7.427H13.1621V25.8179L21.7357 24.0675Z" fill="#2965F1"/>
<path d="M5.613 14.6503L5.90367 17.039H13.1622V14.6503H5.613ZM5.02881 9.81567L5.32364 12.2043H13.1622V9.81567H5.02881ZM13.1622 20.8539L13.148 20.8567L9.53564 20.1384L9.30469 18.2333H6.0486L6.50299 21.9838L13.1473 23.3421L13.1622 23.3391V20.8539Z" fill="#EBEBEB"/>
<path d="M6.30518 0.541748L10.2336 0.541748V1.75159H7.94805V2.96143H10.2338V4.17119H6.30518V0.541748ZM11.0194 0.541748L14.9479 0.541748V1.59378H12.6623V1.80417H14.9479V4.22385H11.0195V3.11909H13.3052V2.9087H11.0193L11.0194 0.541748ZM15.7337 0.541748L19.6623 0.541748V1.59378H17.3766V1.80417H19.6623V4.22385H15.7337V3.11909H18.0194V2.9087H15.7338L15.7337 0.541748Z" fill="black"/>
<path d="M20.6907 14.6503L21.2762 9.81567H13.151V12.2043H17.7215L17.4264 14.6503H13.151V17.039H17.1451L16.7685 20.1369L13.1509 20.8559V23.341L19.8005 21.9838L19.8492 21.5803L20.6116 15.2917L20.6907 14.6503Z" fill="#F6F6F6"/>
</g>
<defs>
<clipPath id="clip0_7_40">
<rect width="26" height="27" fill="white" transform="translate(0.162109 0.541748)"/>
</clipPath>
</defs>
</svg>
