<svg width="27" height="28" viewBox="0 0 27 28" fill="none" xmlns="http://www.w3.org/2000/svg">
<g clip-path="url(#clip0_7_46)">
<path d="M12.9484 0.549072C6.36392 0.549072 6.77505 3.52595 6.77505 3.52595L6.78236 6.6101H13.0658V7.53604H4.28666C4.28666 7.53604 0.0732422 7.03786 0.0732422 13.9642C0.0732422 20.8907 3.75082 20.645 3.75082 20.645H5.94559L5.94559 17.4308C5.94559 17.4308 5.82727 13.5968 9.56446 13.5968H15.7965C15.7965 13.5968 19.2979 13.6558 19.2979 10.069V4.13827C19.2979 4.13827 19.8297 0.549072 12.9484 0.549072ZM9.48372 2.6231C9.6322 2.62296 9.77925 2.65334 9.91646 2.71252C10.0537 2.77169 10.1783 2.85849 10.2833 2.96795C10.3883 3.07741 10.4716 3.20738 10.5283 3.35042C10.5851 3.49346 10.6142 3.64677 10.6141 3.80157C10.6142 3.95636 10.5851 4.10967 10.5283 4.25271C10.4716 4.39575 10.3883 4.52572 10.2833 4.63518C10.1783 4.74464 10.0537 4.83144 9.91646 4.89061C9.77925 4.94979 9.6322 4.98018 9.48372 4.98004C9.33524 4.98018 9.18819 4.94979 9.05098 4.89061C8.91377 4.83144 8.78911 4.74464 8.68412 4.63518C8.57912 4.52572 8.49586 4.39575 8.4391 4.25271C8.38234 4.10967 8.3532 3.95636 8.35333 3.80157C8.3532 3.64677 8.38234 3.49346 8.4391 3.35042C8.49586 3.20738 8.57912 3.07741 8.68412 2.96795C8.78911 2.85849 8.91377 2.77169 9.05098 2.71252C9.18819 2.65334 9.33524 2.62296 9.48372 2.6231Z" fill="url(#paint0_linear_7_46)"/>
<path d="M13.1355 27.4491C19.72 27.4491 19.3089 24.4722 19.3089 24.4722L19.3015 21.3882H13.018V20.4622H21.7971C21.7971 20.4622 26.0106 20.9604 26.0106 14.0339C26.0106 7.10748 22.333 7.35313 22.333 7.35313H20.1382V10.5672C20.1382 10.5672 20.2565 14.4012 16.5193 14.4012H10.2873C10.2873 14.4012 6.78589 14.3422 6.78589 17.9292V23.86C6.78589 23.86 6.25421 27.4491 13.1354 27.4491M16.6001 25.3753C16.4516 25.3754 16.3045 25.345 16.1673 25.2858C16.0301 25.2267 15.9055 25.1399 15.8005 25.0304C15.6955 24.9209 15.6122 24.791 15.5555 24.6479C15.4987 24.5049 15.4696 24.3516 15.4697 24.1968C15.4695 24.042 15.4987 23.8887 15.5554 23.7456C15.6122 23.6026 15.6954 23.4726 15.8004 23.3631C15.9054 23.2536 16.0301 23.1668 16.1673 23.1076C16.3045 23.0485 16.4516 23.0181 16.6001 23.0182C16.7486 23.0181 16.8956 23.0485 17.0328 23.1076C17.17 23.1668 17.2947 23.2536 17.3997 23.3631C17.5047 23.4725 17.5879 23.6025 17.6447 23.7455C17.7015 23.8886 17.7306 24.0419 17.7305 24.1967C17.7306 24.3515 17.7015 24.5048 17.6447 24.6478C17.5879 24.7909 17.5047 24.9208 17.3997 25.0303C17.2947 25.1398 17.17 25.2266 17.0328 25.2857C16.8956 25.3449 16.7486 25.3754 16.6001 25.3753Z" fill="url(#paint1_linear_7_46)"/>
</g>
<defs>
<linearGradient id="paint0_linear_7_46" x1="249.329" y1="242.497" x2="1587.65" y2="1513.41" gradientUnits="userSpaceOnUse">
<stop stop-color="#387EB8"/>
<stop offset="1" stop-color="#366994"/>
</linearGradient>
<linearGradient id="paint1_linear_7_46" x1="374.688" y1="420.929" x2="1809.14" y2="1721.64" gradientUnits="userSpaceOnUse">
<stop stop-color="#FFE052"/>
<stop offset="1" stop-color="#FFC331"/>
</linearGradient>
<clipPath id="clip0_7_46">
<rect width="26" height="27" fill="white" transform="translate(0.0585938 0.541504)"/>
</clipPath>
</defs>
</svg>
