<svg width="27" height="28" viewBox="0 0 27 28" fill="none" xmlns="http://www.w3.org/2000/svg">
<g clip-path="url(#clip0_7_53)">
<path d="M22.2287 9.28355C21.952 9.17286 21.673 9.07032 21.3919 8.97602C21.4391 8.75101 21.4826 8.52874 21.5212 8.31037C22.1547 4.72446 21.7405 1.83558 20.3259 0.884423C18.9695 -0.0274187 16.7513 0.923384 14.511 3.19671C14.2902 3.42116 14.0743 3.65208 13.8635 3.88924C13.7224 3.73153 13.5788 3.57689 13.4328 3.42538C11.0849 0.994673 8.73149 -0.0297872 7.31835 0.924094C5.9632 1.83878 5.56193 4.55453 6.1323 7.95298C6.18905 8.28956 6.25312 8.6244 6.32446 8.95719C5.99134 9.06755 5.66989 9.18503 5.36226 9.31008C2.60951 10.4292 0.851563 12.1829 0.851563 14.0019C0.851563 15.8807 2.7388 17.7651 5.60591 18.9078C5.83835 19 6.07273 19.0855 6.30882 19.1641C6.23214 19.5226 6.16407 19.8834 6.10468 20.2463C5.56091 23.5857 5.98555 26.2373 7.33704 27.1462C8.73291 28.0848 11.0758 27.1201 13.357 24.7949C13.5419 24.6059 13.7228 24.4115 13.8995 24.212C14.1278 24.4688 14.3621 24.7181 14.6023 24.9597C16.8121 27.1767 18.9945 28.072 20.3447 27.1606C21.7392 26.2193 22.1925 23.3708 21.604 19.9052C21.5577 19.6337 21.5057 19.3636 21.4481 19.095C21.6127 19.0381 21.7741 18.9796 21.9316 18.9188C24.9122 17.7674 26.8516 15.9058 26.8516 14.0019C26.8516 12.1762 25.0368 10.4107 22.2287 9.28355ZM21.5823 17.6896C21.4401 17.7444 21.2943 17.7973 21.1456 17.8488C20.8165 16.6342 20.3725 15.3427 19.829 14.0082C20.3476 12.7056 20.7746 11.4305 21.0944 10.2238C21.3604 10.3136 21.6185 10.4082 21.8673 10.508C24.2733 11.4739 25.7409 12.9017 25.7409 14.0019C25.7409 15.1738 24.1559 16.6952 21.5823 17.6896ZM20.5145 20.1567C20.7747 21.6891 20.8117 23.0746 20.6394 24.1578C20.4846 25.1311 20.1732 25.78 19.7881 26.0399C18.9688 26.5929 17.2165 25.8741 15.3268 23.9779C15.1034 23.7533 14.8854 23.5215 14.673 23.2828C15.4057 22.3486 16.1378 21.2626 16.8524 20.0563C18.1094 19.9263 19.2968 19.7136 20.3737 19.4234C20.4256 19.6665 20.4725 19.911 20.5145 20.1567ZM9.71553 25.9443C8.91502 26.2739 8.27741 26.2834 7.89198 26.0243C7.07186 25.4728 6.73091 23.3437 7.19597 20.4878C7.25125 20.1504 7.31455 19.8148 7.38579 19.4814C8.45077 19.7561 9.62961 19.9536 10.8895 20.0728C11.609 21.2531 12.3622 22.3379 13.1214 23.2879C12.9601 23.4699 12.7949 23.6473 12.6261 23.8199C11.6173 24.848 10.6064 25.5775 9.71553 25.9443ZM5.96523 17.6823C4.69743 17.177 3.65042 16.5204 2.93278 15.8038C2.28786 15.16 1.96235 14.5206 1.96235 14.0019C1.96235 12.898 3.37377 11.49 5.72788 10.533C6.01358 10.417 6.31258 10.3074 6.62285 10.2046C6.94826 11.4386 7.37502 12.7288 7.89005 14.0334C7.36832 15.3574 6.93546 16.6682 6.60691 17.9167C6.3914 17.8447 6.17745 17.7666 5.96523 17.6823ZM7.22237 7.70417C6.73376 4.79255 7.05825 2.5962 7.87491 2.04495C8.7447 1.45782 10.6681 2.29494 12.6954 4.39383C12.8276 4.53101 12.9576 4.67096 13.0855 4.81363C12.3301 5.75946 11.5837 6.83627 10.8706 8.00958C9.64779 8.14174 8.47728 8.35395 7.40112 8.63828C7.33482 8.32875 7.27522 8.0172 7.22237 7.70417ZM18.4376 10.9334C18.1834 10.4215 17.9198 9.91595 17.647 9.41725C18.4765 9.53958 19.2713 9.70194 20.0177 9.90041C19.7937 10.7379 19.5144 11.6134 19.1856 12.511C18.9453 11.9794 18.6959 11.4534 18.4376 10.9334ZM13.8641 5.73933C14.3763 6.3865 14.8894 7.10899 15.3941 7.89294C14.3703 7.83656 13.3449 7.83632 12.3211 7.89223C12.8263 7.1155 13.3438 6.39396 13.8641 5.73933ZM9.26114 10.9422C9.00605 11.458 8.76132 11.9807 8.52715 12.5098C8.20377 11.6154 7.92702 10.7359 7.70104 9.88655C8.44285 9.69305 9.23392 9.53484 10.0582 9.41476C9.7823 9.91651 9.51654 10.4259 9.26114 10.9422ZM10.0819 18.6812C9.23027 18.5704 8.42731 18.4203 7.6857 18.232C7.91523 17.3676 8.19809 16.4693 8.52847 15.5557C8.76357 16.0853 9.00932 16.6083 9.26551 17.1243C9.52896 17.6549 9.80176 18.1745 10.0819 18.6812ZM13.8947 22.3558C13.3682 21.6936 12.8431 20.9609 12.3304 20.173C12.8282 20.1957 13.3357 20.2073 13.8516 20.2073C14.3815 20.2073 14.9054 20.1934 15.421 20.1667C14.9147 20.9689 14.4036 21.7026 13.8947 22.3558ZM19.1961 15.5091C19.5436 16.4328 19.8365 17.3262 20.0691 18.1759C19.3153 18.3765 18.5014 18.538 17.6438 18.658C17.9186 18.15 18.1847 17.6358 18.442 17.1154C18.7035 16.5866 18.955 16.051 19.1961 15.5091ZM17.4799 16.4684C17.086 17.2661 16.6701 18.0487 16.2326 18.8149C15.4402 18.8804 14.646 18.9129 13.8516 18.9124C13.0424 18.9124 12.2554 18.883 11.4975 18.8257C11.0487 18.0613 10.6247 17.2773 10.2267 16.4755C9.83052 15.6779 9.46057 14.8631 9.11743 14.0328C9.45969 13.2023 9.82862 12.3871 10.2234 11.589L10.2233 11.5891C10.618 10.7907 11.0386 10.0101 11.484 9.24897C12.2572 9.18077 13.0501 9.14524 13.8515 9.14524C14.6564 9.14524 15.4505 9.18112 16.2235 9.2498C16.6644 10.0098 17.0823 10.7877 17.4762 11.5821C17.8724 12.3785 18.2462 13.1897 18.5971 14.0145C18.2498 14.8477 17.8771 15.6661 17.4799 16.4684ZM19.7711 2.00634C20.6417 2.59182 20.9803 4.95278 20.4333 8.0489C20.3984 8.24642 20.3592 8.44762 20.3165 8.65166C19.2377 8.36129 18.0664 8.14541 16.84 8.01124C16.1256 6.82502 15.3854 5.74655 14.6422 4.81292C14.837 4.59402 15.0364 4.3808 15.2402 4.17345C17.1598 2.22578 18.9538 1.45675 19.7711 2.00634ZM13.8516 11.2948C15.1338 11.2948 16.1733 12.5069 16.1733 14.0019C16.1733 15.497 15.1338 16.709 13.8516 16.709C12.5693 16.709 11.5298 15.497 11.5298 14.0019C11.5298 12.5069 12.5693 11.2948 13.8516 11.2948Z" fill="#00D8FF"/>
</g>
<defs>
<clipPath id="clip0_7_53">
<rect width="26" height="27" fill="white" transform="translate(0.851562 0.54126)"/>
</clipPath>
</defs>
</svg>
