<svg width="35" height="36" viewBox="0 0 35 36" fill="none" xmlns="http://www.w3.org/2000/svg">
<path d="M17.5 3C15.5848 3 13.6885 3.38799 11.9192 4.14181C10.1498 4.89563 8.54217 6.00052 7.18799 7.3934C4.45308 10.2064 2.91663 14.0218 2.91663 18C2.91663 24.63 7.10204 30.255 12.8916 32.25C13.6208 32.37 13.8541 31.905 13.8541 31.5V28.965C9.81454 29.865 8.95413 26.955 8.95413 26.955C8.28329 25.215 7.33538 24.75 7.33538 24.75C6.00829 23.82 7.43746 23.85 7.43746 23.85C8.89579 23.955 9.66871 25.395 9.66871 25.395C10.9375 27.675 13.0812 27 13.9125 26.64C14.0437 25.665 14.4229 25.005 14.8312 24.63C11.5937 24.255 8.19579 22.965 8.19579 17.25C8.19579 15.585 8.74996 14.25 9.69788 13.185C9.55204 12.81 9.04163 11.25 9.84371 9.225C9.84371 9.225 11.0687 8.82 13.8541 10.755C15.0062 10.425 16.2604 10.26 17.5 10.26C18.7395 10.26 19.9937 10.425 21.1458 10.755C23.9312 8.82 25.1562 9.225 25.1562 9.225C25.9583 11.25 25.4479 12.81 25.302 13.185C26.25 14.25 26.8041 15.585 26.8041 17.25C26.8041 22.98 23.3916 24.24 20.1395 24.615C20.6645 25.08 21.1458 25.995 21.1458 27.39V31.5C21.1458 31.905 21.3791 32.385 22.1229 32.25C27.9125 30.24 32.0833 24.63 32.0833 18C32.0833 16.0302 31.7061 14.0796 30.9732 12.2597C30.2403 10.4399 29.1661 8.78628 27.8119 7.3934C26.4577 6.00052 24.8501 4.89563 23.0808 4.14181C21.3114 3.38799 19.4151 3 17.5 3Z" fill="#7D3191"/>
</svg>
