<svg width="27" height="26" viewBox="0 0 27 26" fill="none" xmlns="http://www.w3.org/2000/svg">
<path d="M21.6907 19.7376C21.7691 19.8131 21.8313 19.9027 21.8737 20.0014C21.9161 20.1 21.938 20.2057 21.938 20.3125C21.938 20.4192 21.9161 20.5249 21.8737 20.6236C21.8313 20.7222 21.7691 20.8118 21.6907 20.8873C21.6123 20.9628 21.5192 21.0227 21.4168 21.0635C21.3144 21.1044 21.2046 21.1254 21.0937 21.1254C20.9829 21.1254 20.8731 21.1044 20.7707 21.0635C20.6682 21.0227 20.5752 20.9628 20.4968 20.8873L13.5 14.1486L6.50318 20.8873C6.34486 21.0398 6.13013 21.1254 5.90623 21.1254C5.68233 21.1254 5.4676 21.0398 5.30928 20.8873C5.15096 20.7348 5.06201 20.5281 5.06201 20.3125C5.06201 20.0969 5.15096 19.8901 5.30928 19.7376L12.3071 13L5.30928 6.26231C5.15096 6.10985 5.06201 5.90307 5.06201 5.68746C5.06201 5.47186 5.15096 5.26508 5.30928 5.11262C5.4676 4.96016 5.68233 4.87451 5.90623 4.87451C6.13013 4.87451 6.34486 4.96016 6.50318 5.11262L13.5 11.8513L20.4968 5.11262C20.6551 4.96016 20.8698 4.87451 21.0937 4.87451C21.3176 4.87451 21.5324 4.96016 21.6907 5.11262C21.849 5.26508 21.938 5.47186 21.938 5.68746C21.938 5.90307 21.849 6.10985 21.6907 6.26231L14.6928 13L21.6907 19.7376Z" fill="#589DDC"/>
</svg>
