<svg width="35" height="36" viewBox="0 0 35 36" fill="none" xmlns="http://www.w3.org/2000/svg">
<path d="M10.9375 10.125H15.3125M10.9375 18H24.0625M10.9375 22.5H24.0625M10.9375 27H15.3125M8.75 32.625H26.25C26.8302 32.625 27.3866 32.3879 27.7968 31.966C28.207 31.544 28.4375 30.9717 28.4375 30.375V5.625C28.4375 5.02826 28.207 4.45597 27.7968 4.03401C27.3866 3.61205 26.8302 3.375 26.25 3.375H8.75C8.16984 3.375 7.61344 3.61205 7.2032 4.03401C6.79297 4.45597 6.5625 5.02826 6.5625 5.625V30.375C6.5625 30.9717 6.79297 31.544 7.2032 31.966C7.61344 32.3879 8.16984 32.625 8.75 32.625Z" stroke="#589DDC" stroke-width="2" stroke-linecap="round" stroke-linejoin="round"/>
<path d="M24.0625 10.6875C24.3645 10.6875 24.6094 10.4357 24.6094 10.125C24.6094 9.81434 24.3645 9.5625 24.0625 9.5625C23.7605 9.5625 23.5156 9.81434 23.5156 10.125C23.5156 10.4357 23.7605 10.6875 24.0625 10.6875Z" fill="#589DDC" stroke="#589DDC"/>
</svg>
