<svg width="27" height="26" viewBox="0 0 27 26" fill="none" xmlns="http://www.w3.org/2000/svg">
<g clip-path="url(#clip0_148_6)">
<path d="M12.4806 0.509278C11.5334 0.509278 10.5726 0.608945 9.60961 0.821279C7.59017 1.25773 5.71041 2.15834 4.13086 3.4462C3.06718 4.30974 2.16863 5.34587 1.47586 6.5077C0.965921 7.38256 0.584653 8.32139 0.342986 9.29728C-0.104764 11.0523 -0.107014 12.9113 0.294611 14.7659C0.390236 15.2047 0.500486 15.6424 0.643361 16.0789C1.02029 17.5192 1.65285 18.8859 2.51311 20.1187C2.46926 20.2704 2.43693 20.425 2.41636 20.5813C2.29258 21.5226 2.55974 22.4729 3.15974 23.2256C3.75974 23.9782 4.64405 24.4723 5.62036 24.6004C6.37311 24.6941 7.13757 24.5632 7.81074 24.2256C8.98636 24.7781 10.252 25.1616 11.5671 25.3523C13.171 25.5827 14.8053 25.5258 16.3877 25.1844C18.4369 24.7309 20.342 23.8073 21.9407 22.4923C23.0082 21.606 23.9041 20.5445 24.5867 19.3571C25.4361 17.8792 25.9557 16.2468 26.1122 14.5644C26.247 12.9788 26.0567 11.3831 25.552 9.8682C25.7492 9.78442 25.9315 9.67861 26.0987 9.55078H26.0999C26.5521 9.20195 26.8795 8.69061 26.974 8.09695C27.0671 7.49055 26.9078 6.87327 26.5306 6.37945C26.1535 5.88562 25.5891 5.5552 24.9602 5.46011C24.4993 5.39165 24.0276 5.45611 23.6046 5.64536C23.5604 5.59914 23.518 5.5522 23.4775 5.50453C22.402 4.21044 21.0735 3.13203 19.567 2.33036C18.9306 1.99084 18.2687 1.69753 17.587 1.45286C16.8339 1.17298 16.059 0.950921 15.2695 0.788778C14.3521 0.602572 13.4182 0.5089 12.4806 0.509278ZM13.2839 0.864612C13.6699 0.860659 14.0559 0.875846 14.4404 0.910112C15.498 0.998065 16.5371 1.23117 17.5262 1.60236C18.6332 2.02486 19.6525 2.6402 20.5716 3.37036C21.4787 4.0966 22.2712 4.94618 22.924 5.89236C22.9525 5.9357 22.9787 5.97903 23.0027 6.02236C22.5906 6.37266 22.3168 6.8493 22.2276 7.37164C22.1385 7.89398 22.2394 8.42994 22.5134 8.88886C22.3356 9.01236 21.4221 9.63853 20.6751 10.1704C20.2094 10.5041 19.8505 10.7739 19.8505 10.7739L20.5041 11.5105C20.5041 11.5105 20.8371 11.2115 21.2522 10.8194C21.8957 10.2105 22.6349 9.48361 22.8216 9.29944C23.0874 9.58421 23.4229 9.80047 23.7976 9.92856C24.1722 10.0566 24.5742 10.0925 24.967 10.0329C25.2385 11.4827 25.2335 12.9679 24.9524 14.416C24.6733 15.9095 24.1108 17.3406 23.293 18.6378C22.6484 19.6694 21.8616 20.6122 20.9541 21.4404C19.6154 22.6591 17.992 23.6309 16.1099 24.1823C14.6669 24.6237 13.151 24.8015 11.6402 24.7066C10.4648 24.63 9.30673 24.3922 8.20111 24.0003C8.63354 23.7175 8.99907 23.3499 9.27378 22.9216C9.54849 22.4934 9.72619 22.0141 9.79524 21.5151C9.88657 20.8332 9.77173 20.1403 9.46449 19.5196C9.66699 19.3441 9.91786 19.1264 10.2025 18.8696C11.3444 17.835 12.8496 16.3747 12.8496 16.3747L12.3209 15.7258C12.3209 15.7258 10.4871 16.7788 9.16974 17.5978C8.82436 17.8123 8.52511 18.0073 8.29561 18.1579C7.79375 17.803 7.20726 17.5754 6.59011 17.4959C5.77814 17.3976 4.95505 17.5579 4.24665 17.9525C3.53825 18.3471 2.98351 18.9542 2.66724 19.681C2.38093 19.3083 2.11977 18.9182 1.88536 18.5132C1.43402 17.7279 1.07625 16.8961 0.818861 16.0334C0.71599 15.6006 0.640849 15.1621 0.593861 14.7204C0.409361 12.9297 0.709736 11.1909 1.30149 9.57028C1.62435 8.70769 2.03392 7.87753 2.52436 7.09161C3.16561 6.04295 3.92836 5.06361 4.85199 4.21428C7.11701 2.10422 10.1327 0.906901 13.2839 0.864612ZM13.1185 4.39303C11.9805 4.39872 10.8909 4.83655 10.0862 5.61141C9.28157 6.38627 8.8269 7.43556 8.82099 8.53136V11.088H7.76349C6.91861 11.088 6.21436 11.7651 6.21436 12.5798V16.6964H7.85686V12.6686H18.3801V19.4546H11.2724V21.0363H18.4724C19.3172 21.0363 20.0215 20.3592 20.0215 19.5445V12.5787C20.0177 12.1842 19.8532 11.8069 19.5635 11.5279C19.2738 11.249 18.882 11.0906 18.4724 11.0869H17.4149V8.53028C17.4087 7.43467 16.9539 6.38565 16.1492 5.61102C15.3446 4.8364 14.2551 4.39872 13.1174 4.39303H13.1185ZM13.1185 5.9747C13.8217 5.97755 14.4953 6.24782 14.9926 6.72668C15.4899 7.20553 15.7705 7.85417 15.7735 8.53136V11.088H10.4624V8.53136C10.4653 7.85417 10.746 7.20553 11.2433 6.72668C11.7405 6.24782 12.4141 5.97755 13.1174 5.9747H13.1185ZM24.5271 6.39936C24.7347 6.39037 24.9418 6.42568 25.1335 6.50276C25.3253 6.57984 25.497 6.6968 25.6363 6.84525C25.7756 6.9937 25.8791 7.16998 25.9394 7.36146C25.9997 7.55294 26.0153 7.7549 25.9851 7.95286C25.9314 8.28615 25.7495 8.58779 25.4755 8.79786C25.1762 9.02861 24.7892 9.14236 24.3865 9.08386C24.0196 9.0283 23.6903 8.83554 23.4702 8.54749C23.25 8.25944 23.1569 7.89937 23.2109 7.54553C23.2611 7.23833 23.4191 6.95699 23.6586 6.74842C23.8981 6.53985 24.2047 6.41665 24.5271 6.39936ZM6.05686 18.8772C6.52267 18.8705 6.97937 19.0017 7.36512 19.2532C7.75087 19.5048 8.04703 19.8644 8.21349 20.2834C8.34399 20.6084 8.39236 20.9637 8.34174 21.3309C8.26133 21.9011 7.95042 22.4176 7.47661 22.7682C7.0028 23.1188 6.40442 23.275 5.81161 23.2029C5.21964 23.125 4.68353 22.8253 4.31974 22.3689C3.95595 21.9125 3.79388 21.3363 3.86874 20.7654C3.94231 20.2522 4.20259 19.7808 4.60328 19.435C5.00396 19.0892 5.51904 18.8916 6.05686 18.8772Z" fill="#589DDC"/>
</g>
<defs>
<clipPath id="clip0_148_6">
<rect width="27" height="26" fill="white"/>
</clipPath>
</defs>
</svg>
