<svg width="27" height="28" viewBox="0 0 27 28" fill="none" xmlns="http://www.w3.org/2000/svg">
<g clip-path="url(#clip0_7_61)">
<path d="M20.4473 0.540771L6.63477 0.540771C3.26928 0.540771 0.541016 3.37397 0.541016 6.8689L0.541016 21.2126C0.541016 24.7076 3.26928 27.5408 6.63477 27.5408H20.4473C23.8128 27.5408 26.541 24.7076 26.541 21.2126V6.8689C26.541 3.37397 23.8128 0.540771 20.4473 0.540771Z" fill="#2396ED"/>
<path d="M14.8803 13.4209H16.9844V11.444H14.8803V13.4209ZM12.3756 13.4209H14.4796V11.444H12.3756V13.4209ZM9.92082 13.4209H12.0249V11.444H9.92082V13.4209ZM7.46605 13.4209H9.52016V11.444H7.46615L7.46605 13.4209ZM4.96132 13.4209H7.06539V11.444H4.96132V13.4209ZM7.46615 11.0278H9.52005V9.05105H7.46615V11.0278ZM9.92092 11.0278H12.0249V9.05105H9.92082L9.92092 11.0278ZM12.3756 11.0278H14.4796V9.05105H12.3756V11.0278ZM12.3756 8.63476H14.4796V6.65796H12.3756V8.63476ZM23.6973 12.5367C23.6973 12.5367 22.7955 11.6522 20.942 11.9644C20.7416 10.4557 19.1886 9.57132 19.1886 9.57132C19.1886 9.57132 17.7358 11.3921 18.7878 13.421C18.4873 13.5771 17.9863 13.7852 17.2348 13.7852H3.4585C3.20794 14.7737 3.20794 21.3285 10.1212 21.3285C15.0807 21.3285 18.7878 18.9355 20.5412 14.5655C23.1462 14.7736 23.6973 12.5367 23.6973 12.5367Z" fill="#F6F6F6"/>
</g>
<defs>
<clipPath id="clip0_7_61">
<rect width="26" height="27" fill="white" transform="translate(0.541016 0.540771)"/>
</clipPath>
</defs>
</svg>
